<?xml version="1.0" standalone="no"?>
<!DOCTYPE svg PUBLIC "-//W3C//DTD SVG 20010904//EN"
 "http://www.w3.org/TR/2001/REC-SVG-20010904/DTD/svg10.dtd">
<svg version="1.0" xmlns="http://www.w3.org/2000/svg"
 width="512.000000pt" height="512.000000pt" viewBox="0 0 512.000000 512.000000"
 preserveAspectRatio="xMidYMid meet">
<metadata>
Created by potrace 1.14, written by Peter Selinger 2001-2017
</metadata>
<g transform="translate(0.000000,512.000000) scale(0.100000,-0.100000)"
fill="#000000" stroke="none">
<path d="M999 5116 c-2 -2 -24 -6 -49 -9 -25 -3 -79 -15 -120 -26 -366 -98
-657 -375 -776 -739 -42 -131 -54 -215 -49 -372 4 -140 15 -206 52 -318 111
-334 375 -602 704 -712 123 -42 230 -57 376 -55 76 1 149 5 163 9 14 3 39 8
55 12 17 3 62 15 102 26 l71 21 191 -192 c105 -105 191 -196 191 -201 0 -6
-86 -96 -191 -202 l-192 -191 -54 17 c-125 40 -240 55 -394 52 -75 -2 -141 -6
-146 -9 -6 -4 -28 -9 -49 -13 -61 -9 -179 -51 -263 -93 -270 -135 -472 -370
-567 -659 -42 -131 -54 -215 -49 -372 4 -139 14 -205 51 -318 107 -328 367
-593 695 -708 126 -44 207 -58 354 -58 77 -1 158 2 180 6 22 4 56 10 75 14 19
3 69 17 110 31 310 106 546 322 678 620 62 140 86 266 87 443 0 149 -10 214
-57 371 l-10 37 1420 1420 c782 782 1429 1436 1438 1454 21 41 21 115 0 156
-49 95 -235 212 -391 245 -100 22 -269 16 -360 -13 -90 -28 -156 -62 -224
-112 -29 -23 -377 -364 -772 -759 l-719 -719 -199 199 c-158 157 -197 201
-189 214 8 15 40 133 54 197 13 62 12 289 -1 369 -77 460 -422 820 -880 918
-62 13 -336 28 -346 19z m278 -664 c82 -31 134 -65 190 -124 86 -92 124 -183
128 -311 8 -217 -120 -403 -325 -473 -81 -27 -235 -25 -312 5 -187 73 -305
233 -313 426 -2 44 0 100 6 125 38 170 180 318 350 364 74 20 208 14 276 -12z
m-38 -2869 c303 -74 449 -420 295 -703 -56 -102 -193 -202 -314 -229 -67 -15
-196 -6 -257 17 -124 47 -222 135 -273 244 -39 85 -49 137 -46 233 12 301 296
511 595 438z"/>
<path d="M3170 2076 c-140 -140 -284 -283 -319 -319 l-63 -65 600 -600 c330
-330 623 -618 653 -642 120 -95 253 -141 419 -145 133 -4 221 14 335 69 64 30
172 107 203 145 47 58 58 140 28 199 -13 26 -1587 1612 -1599 1612 -2 0 -117
-114 -257 -254z"/>
</g>
</svg>
